<svg width="24" height="24" viewBox="0 0 24 24" fill="none" xmlns="http://www.w3.org/2000/svg">
<path fill-rule="evenodd" clip-rule="evenodd" d="M12 0C5.37258 0 0 5.20469 0 11.625C0 18.0453 5.37258 23.25 12 23.25C18.6274 23.25 24 18.0453 24 11.625C23.9928 5.20757 18.6244 0.00694095 12 0ZM12 18.4062C11.1716 18.4062 10.5 17.7557 10.5 16.9531C10.5 16.1506 11.1716 15.5 12 15.5C12.8284 15.5 13.5 16.1506 13.5 16.9531C13.5 17.7557 12.8284 18.4062 12 18.4062ZM13 13.4046C12.9998 13.0192 13.2354 12.6704 13.6 12.5162C15.431 11.7421 16.3916 9.77888 15.8504 7.9159C15.3092 6.05292 13.432 4.86246 11.453 5.12713C9.47397 5.39179 7.99997 7.03042 8 8.96578C8 9.5008 8.44772 9.93453 9 9.93453C9.55229 9.93453 10 9.5008 10 8.96578C9.99949 7.99798 10.7362 7.17824 11.7258 7.04557C12.7154 6.9129 13.6543 7.508 13.9251 8.43956C14.1959 9.37112 13.7156 10.3534 12.8 10.7405C11.7066 11.2028 10.9998 12.2488 11 13.4046C11 13.9396 11.4477 14.3733 12 14.3733C12.5523 14.3733 13 13.9396 13 13.4046Z" fill="#1A203D"/>
</svg>
